<svg xmlns="http://www.w3.org/2000/svg" viewBox="0 0 720 340" font-family="'SF Mono', 'Fira Mono', 'IBM Plex Mono', Menlo, monospace">
  <rect width="720" height="340" fill="#0d1117" rx="8"/>
  <text x="360" y="32" text-anchor="middle" fill="#e6edf3" font-size="14" font-weight="bold">MAST Study: Inter-Agent Failure Clusters</text>
  <text x="360" y="50" text-anchor="middle" fill="#8b949e" font-size="10">1,600+ annotated failure traces across 7 frameworks</text>

  <!-- Bars -->
  <g transform="translate(40, 70)">
    <!-- Reasoning-action mismatch: 13.2% -->
    <rect x="0" y="0" width="396" height="36" rx="4" fill="#58a6ff" opacity="0.15"/>
    <rect x="0" y="0" width="396" height="36" rx="4" fill="#58a6ff" opacity="0.85"/>
    <text x="10" y="23" fill="#0d1117" font-size="11" font-weight="bold">Reasoning-action mismatch</text>
    <text x="406" y="23" fill="#58a6ff" font-size="13" font-weight="bold">13.2%</text>

    <!-- Task derailment: 7.4% -->
    <rect x="0" y="50" width="222" height="36" rx="4" fill="#3fb950" opacity="0.15"/>
    <rect x="0" y="50" width="222" height="36" rx="4" fill="#3fb950" opacity="0.85"/>
    <text x="10" y="73" fill="#0d1117" font-size="11" font-weight="bold">Task derailment</text>
    <text x="232" y="73" fill="#3fb950" font-size="13" font-weight="bold">7.4%</text>

    <!-- Wrong-assumption: 6.8% -->
    <rect x="0" y="100" width="204" height="36" rx="4" fill="#d2a8ff" opacity="0.15"/>
    <rect x="0" y="100" width="204" height="36" rx="4" fill="#d2a8ff" opacity="0.85"/>
    <text x="10" y="123" fill="#0d1117" font-size="11" font-weight="bold">Wrong-assumption failures</text>
    <text x="214" y="123" fill="#d2a8ff" font-size="13" font-weight="bold">6.8%</text>

    <!-- Ignoring other agents: 1.9% -->
    <rect x="0" y="150" width="57" height="36" rx="4" fill="#f0883e" opacity="0.15"/>
    <rect x="0" y="150" width="57" height="36" rx="4" fill="#f0883e" opacity="0.85"/>
    <text x="67" y="173" fill="#f0883e" font-size="11">Ignoring other agents</text>
    <text x="270" y="173" fill="#f0883e" font-size="13" font-weight="bold">1.9%</text>

    <!-- Information withholding: 0.85% -->
    <rect x="0" y="200" width="26" height="36" rx="4" fill="#f85149" opacity="0.15"/>
    <rect x="0" y="200" width="26" height="36" rx="4" fill="#f85149" opacity="0.85"/>
    <text x="36" y="223" fill="#f85149" font-size="11">Information withholding</text>
    <text x="270" y="223" fill="#f85149" font-size="13" font-weight="bold">0.85%</text>
  </g>

  <text x="360" y="320" text-anchor="middle" fill="#484f58" font-size="10">Source: Cemri et al., arXiv:2503.13657 (ICLR 2025)</text>
</svg>
