<svg xmlns="http://www.w3.org/2000/svg" viewBox="0 0 1200 540" width="1200" height="540" role="img" aria-label="Membrane scaling sweep" font-family="ui-monospace, SFMono-Regular, Menlo, Monaco, Consolas, 'Liberation Mono', 'Courier New', monospace">
  <title>Synthetic Membrane scaling sweep</title>
  <rect width="1200" height="540" fill="#e9e9e7"/>
  <text x="32" y="44" fill="#141414" font-size="22" font-weight="700">Scaling — tokens vs. number of agents</text>
  <text x="32" y="68" fill="#4c4c4a" font-size="13">fixed: 5 facts per agent · baseline grows O(N²·F) · membrane grows O(N·F)</text>
  <rect x="90" y="110" width="1050" height="350"     fill="#dfdfdd" stroke="#9a9a98" stroke-width="1"/>
  <line x1="90" y1="372.5" x2="1140" y2="372.5"     stroke="#9a9a98" stroke-opacity="0.6" stroke-dasharray="2 6"/>
  <text x="82" y="376.5" fill="#4c4c4a" font-size="10"     text-anchor="end">123,690</text>
  <line x1="90" y1="285.0" x2="1140" y2="285.0"     stroke="#9a9a98" stroke-opacity="0.6" stroke-dasharray="2 6"/>
  <text x="82" y="289.0" fill="#4c4c4a" font-size="10"     text-anchor="end">247,380</text>
  <line x1="90" y1="197.5" x2="1140" y2="197.5"     stroke="#9a9a98" stroke-opacity="0.6" stroke-dasharray="2 6"/>
  <text x="82" y="201.5" fill="#4c4c4a" font-size="10"     text-anchor="end">371,070</text>
  <line x1="90" y1="110.0" x2="1140" y2="110.0"     stroke="#9a9a98" stroke-opacity="0.6" stroke-dasharray="2 6"/>
  <text x="82" y="114.0" fill="#4c4c4a" font-size="10"     text-anchor="end">494,760</text>
  <line x1="90.0" y1="460" x2="90.0" y2="464"     stroke="#4c4c4a" stroke-width="1"/>
  <text x="90.0" y="478" fill="#4c4c4a"     font-size="11" text-anchor="middle">3</text>
  <line x1="213.52941176470588" y1="460" x2="213.52941176470588" y2="464"     stroke="#4c4c4a" stroke-width="1"/>
  <text x="213.52941176470588" y="478" fill="#4c4c4a"     font-size="11" text-anchor="middle">5</text>
  <line x1="398.8235294117647" y1="460" x2="398.8235294117647" y2="464"     stroke="#4c4c4a" stroke-width="1"/>
  <text x="398.8235294117647" y="478" fill="#4c4c4a"     font-size="11" text-anchor="middle">8</text>
  <line x1="645.8823529411765" y1="460" x2="645.8823529411765" y2="464"     stroke="#4c4c4a" stroke-width="1"/>
  <text x="645.8823529411765" y="478" fill="#4c4c4a"     font-size="11" text-anchor="middle">12</text>
  <line x1="1140.0" y1="460" x2="1140.0" y2="464"     stroke="#4c4c4a" stroke-width="1"/>
  <text x="1140.0" y="478" fill="#4c4c4a"     font-size="11" text-anchor="middle">20</text>
  <text x="615.0" y="502" fill="#141414"     font-size="12" text-anchor="middle">number of agents</text>
  <polyline points="90.0,454.7 213.5,442.5 398.8,410.9 645.9,344.2 1140.0,126.7" fill="none" stroke="#6a6a68"     stroke-width="2.4"/>
  <circle cx="90.0" cy="454.7"     r="4" fill="#6a6a68"/>
  <circle cx="213.5" cy="442.5"     r="4" fill="#6a6a68"/>
  <circle cx="398.8" cy="410.9"     r="4" fill="#6a6a68"/>
  <circle cx="645.9" cy="344.2"     r="4" fill="#6a6a68"/>
  <circle cx="1140.0" cy="126.7"     r="4" fill="#6a6a68"/>
  <polyline points="90.0,456.9 213.5,452.8 398.8,443.4 645.9,424.9 1140.0,367.5" fill="none" stroke="#2e2e2c"     stroke-width="2.4"/>
  <circle cx="90.0" cy="456.9"     r="4" fill="#2e2e2c"/>
  <circle cx="213.5" cy="452.8"     r="4" fill="#2e2e2c"/>
  <circle cx="398.8" cy="443.4"     r="4" fill="#2e2e2c"/>
  <circle cx="645.9" cy="424.9"     r="4" fill="#2e2e2c"/>
  <circle cx="1140.0" cy="367.5"     r="4" fill="#2e2e2c"/>
  <rect x="106" y="120" width="220" height="60"     rx="6" fill="#e9e9e7" fill-opacity="0.65" stroke="#9a9a98"/>
  <line x1="118" y1="142" x2="146"     y2="142" stroke="#6a6a68" stroke-width="2.4"/>
  <circle cx="132" cy="142" r="4" fill="#6a6a68"/>
  <text x="154" y="146" fill="#141414"     font-size="12">baseline (point-to-point)</text>
  <line x1="118" y1="164" x2="146"     y2="164" stroke="#2e2e2c" stroke-width="2.4"/>
  <circle cx="132" cy="164" r="4" fill="#2e2e2c"/>
  <text x="154" y="168" fill="#141414"     font-size="12">membrane (shared medium)</text>
</svg>
