<svg xmlns="http://www.w3.org/2000/svg" viewBox="0 0 1200 620" width="1200" height="620" role="img" aria-label="Synthetic Membrane — shared medium state graph" font-family="ui-monospace, SFMono-Regular, Menlo, Monaco, Consolas, 'Liberation Mono', 'Courier New', monospace">
  <title>Synthetic Membrane — shared medium state graph</title>
  <rect width="1200" height="620" fill="#e9e9e7"/>
  <defs>
    <marker id="arrow" viewBox="0 0 10 10" refX="10" refY="5"       markerWidth="8" markerHeight="8" orient="auto-start-reverse">
      <path d="M0,0 L10,5 L0,10 z" fill="#4c4c4a"/>
    </marker>
    <marker id="arrow-muted" viewBox="0 0 10 10" refX="10" refY="5"       markerWidth="6" markerHeight="6" orient="auto-start-reverse">
      <path d="M0,0 L10,5 L0,10 z" fill="#4c4c4a"/>
    </marker>
  </defs>
  <text x="32" y="44" fill="#141414" font-size="22" font-weight="700">Shared medium — exposed state graph</text>
  <text x="32" y="68" fill="#4c4c4a" font-size="13">agents on the left · entries on the right · edges colored by permeability tier</text>
  <text x="1168" y="100" fill="#141414" font-size="11"     text-anchor="end">private</text>
  <rect x="1097" y="89" width="14" height="10"     rx="2" fill="#141414"/>
  <text x="1087" y="100" fill="#141414" font-size="11"     text-anchor="end">trusted</text>
  <rect x="1016" y="89" width="14" height="10"     rx="2" fill="#6a6a68"/>
  <text x="1006" y="100" fill="#141414" font-size="11"     text-anchor="end">public</text>
  <rect x="942" y="89" width="14" height="10"     rx="2" fill="#2e2e2c"/>
  <rect x="60" y="140" width="320" height="56"     rx="8" fill="#dfdfdd" stroke="#4c4c4a" stroke-width="1.3"/>
  <circle cx="78" cy="168.0" r="6" fill="#4c4c4a"/>
  <text x="96" y="162" fill="#141414"     font-size="14" font-weight="700">Orchestrator</text>
  <text x="96" y="182" fill="#4c4c4a"     font-size="10">coordination, planning, synthesis</text>
  <rect x="60" y="220" width="320" height="56"     rx="8" fill="#dfdfdd" stroke="#4c4c4a" stroke-width="1.3"/>
  <circle cx="78" cy="248.0" r="6" fill="#4c4c4a"/>
  <text x="96" y="242" fill="#141414"     font-size="14" font-weight="700">Researcher</text>
  <text x="96" y="262" fill="#4c4c4a"     font-size="10">research, fact_check, data_analysis</text>
  <rect x="60" y="300" width="320" height="56"     rx="8" fill="#dfdfdd" stroke="#4c4c4a" stroke-width="1.3"/>
  <circle cx="78" cy="328.0" r="6" fill="#4c4c4a"/>
  <text x="96" y="322" fill="#141414"     font-size="14" font-weight="700">Writer</text>
  <text x="96" y="342" fill="#4c4c4a"     font-size="10">writing, drafting, summarization</text>
  <rect x="60" y="380" width="320" height="56"     rx="8" fill="#dfdfdd" stroke="#4c4c4a" stroke-width="1.3"/>
  <circle cx="78" cy="408.0" r="6" fill="#4c4c4a"/>
  <text x="96" y="402" fill="#141414"     font-size="14" font-weight="700">Editor</text>
  <text x="96" y="422" fill="#4c4c4a"     font-size="10">editing, reviewing, style</text>
  <rect x="60" y="460" width="320" height="56"     rx="8" fill="#dfdfdd" stroke="#4c4c4a" stroke-width="1.3"/>
  <circle cx="78" cy="488.0" r="6" fill="#4c4c4a"/>
  <text x="96" y="482" fill="#141414"     font-size="14" font-weight="700">Reviewer</text>
  <text x="96" y="502" fill="#4c4c4a"     font-size="10">reviewing, critique, quality_check</text>
  <rect x="760" y="140" width="370" height="36"     rx="6" fill="#dfdfdd" stroke="#6a6a68" stroke-width="1.3"/>
  <rect x="760" y="140" width="6" height="36"     rx="2" fill="#6a6a68"/>
  <text x="776" y="162.0" fill="#141414"     font-size="12" font-weight="600">feedback.body</text>
  <text x="1120" y="162.0" fill="#6a6a68"     font-size="10" text-anchor="end" font-weight="700">TRUSTED</text>
  <rect x="760" y="190" width="370" height="36"     rx="6" fill="#dfdfdd" stroke="#6a6a68" stroke-width="1.3"/>
  <rect x="760" y="190" width="6" height="36"     rx="2" fill="#6a6a68"/>
  <text x="776" y="212.0" fill="#141414"     font-size="12" font-weight="600">feedback.intro</text>
  <text x="1120" y="212.0" fill="#6a6a68"     font-size="10" text-anchor="end" font-weight="700">TRUSTED</text>
  <rect x="760" y="240" width="370" height="36"     rx="6" fill="#dfdfdd" stroke="#2e2e2c" stroke-width="1.3"/>
  <rect x="760" y="240" width="6" height="36"     rx="2" fill="#2e2e2c"/>
  <text x="776" y="262.0" fill="#141414"     font-size="12" font-weight="600">tasks.brief</text>
  <text x="1120" y="262.0" fill="#2e2e2c"     font-size="10" text-anchor="end" font-weight="700">PUBLIC</text>
  <rect x="760" y="290" width="370" height="36"     rx="6" fill="#dfdfdd" stroke="#2e2e2c" stroke-width="1.3"/>
  <rect x="760" y="290" width="6" height="36"     rx="2" fill="#2e2e2c"/>
  <text x="776" y="312.0" fill="#141414"     font-size="12" font-weight="600">findings.coastal_risk</text>
  <text x="1120" y="312.0" fill="#2e2e2c"     font-size="10" text-anchor="end" font-weight="700">PUBLIC</text>
  <rect x="760" y="340" width="370" height="36"     rx="6" fill="#dfdfdd" stroke="#2e2e2c" stroke-width="1.3"/>
  <rect x="760" y="340" width="6" height="36"     rx="2" fill="#2e2e2c"/>
  <text x="776" y="362.0" fill="#141414"     font-size="12" font-weight="600">findings.green_infra</text>
  <text x="1120" y="362.0" fill="#2e2e2c"     font-size="10" text-anchor="end" font-weight="700">PUBLIC</text>
  <rect x="760" y="390" width="370" height="36"     rx="6" fill="#dfdfdd" stroke="#2e2e2c" stroke-width="1.3"/>
  <rect x="760" y="390" width="6" height="36"     rx="2" fill="#2e2e2c"/>
  <text x="776" y="412.0" fill="#141414"     font-size="12" font-weight="600">findings.heat_islands</text>
  <text x="1120" y="412.0" fill="#2e2e2c"     font-size="10" text-anchor="end" font-weight="700">PUBLIC</text>
  <rect x="760" y="440" width="370" height="36"     rx="6" fill="#dfdfdd" stroke="#141414" stroke-width="1.3"/>
  <rect x="760" y="440" width="6" height="36"     rx="2" fill="#141414"/>
  <text x="776" y="462.0" fill="#141414"     font-size="12" font-weight="600">findings.notes_internal</text>
  <text x="1120" y="462.0" fill="#141414"     font-size="10" text-anchor="end" font-weight="700">PRIVATE</text>
  <rect x="760" y="490" width="370" height="36"     rx="6" fill="#dfdfdd" stroke="#2e2e2c" stroke-width="1.3"/>
  <rect x="760" y="490" width="6" height="36"     rx="2" fill="#2e2e2c"/>
  <text x="776" y="512.0" fill="#141414"     font-size="12" font-weight="600">final.brief</text>
  <text x="1120" y="512.0" fill="#2e2e2c"     font-size="10" text-anchor="end" font-weight="700">PUBLIC</text>
  <path d="M380,408.0 C551.0,408.0 589.0,158.0 760,158.0"     fill="none" stroke="#6a6a68" stroke-width="1.4"     stroke-opacity="0.55"/>
  <path d="M380,408.0 C551.0,408.0 589.0,208.0 760,208.0"     fill="none" stroke="#6a6a68" stroke-width="1.4"     stroke-opacity="0.55"/>
  <path d="M380,168.0 C551.0,168.0 589.0,258.0 760,258.0"     fill="none" stroke="#2e2e2c" stroke-width="1.4"     stroke-opacity="0.55"/>
  <path d="M380,248.0 C551.0,248.0 589.0,308.0 760,308.0"     fill="none" stroke="#2e2e2c" stroke-width="1.4"     stroke-opacity="0.55"/>
  <path d="M380,248.0 C551.0,248.0 589.0,358.0 760,358.0"     fill="none" stroke="#2e2e2c" stroke-width="1.4"     stroke-opacity="0.55"/>
  <path d="M380,248.0 C551.0,248.0 589.0,408.0 760,408.0"     fill="none" stroke="#2e2e2c" stroke-width="1.4"     stroke-opacity="0.55"/>
  <path d="M380,248.0 C551.0,248.0 589.0,458.0 760,458.0"     fill="none" stroke="#141414" stroke-width="1.4"     stroke-opacity="0.55"/>
  <path d="M380,328.0 C551.0,328.0 589.0,508.0 760,508.0"     fill="none" stroke="#2e2e2c" stroke-width="1.4"     stroke-opacity="0.55"/>
</svg>
