<svg xmlns="http://www.w3.org/2000/svg" viewBox="0 0 1200 360" width="1200" height="360" role="img" aria-label="Synthetic Membrane — swarm activation timeline" font-family="ui-monospace, SFMono-Regular, Menlo, Monaco, Consolas, 'Liberation Mono', 'Courier New', monospace">
  <title>Synthetic Membrane — swarm activation timeline</title>
  <rect width="1200" height="360" fill="#0d1117"/>
  <defs>
    <marker id="arrow" viewBox="0 0 10 10" refX="10" refY="5"       markerWidth="8" markerHeight="8" orient="auto-start-reverse">
      <path d="M0,0 L10,5 L0,10 z" fill="#58a6ff"/>
    </marker>
    <marker id="arrow-muted" viewBox="0 0 10 10" refX="10" refY="5"       markerWidth="6" markerHeight="6" orient="auto-start-reverse">
      <path d="M0,0 L10,5 L0,10 z" fill="#6e7681"/>
    </marker>
  </defs>
  <text x="32" y="44" fill="#e6edf3" font-size="22" font-weight="700">Quorum-sensing swarm timeline</text>
  <text x="32" y="68" fill="#6e7681" font-size="13">swarm lifecycle plotted against the event log sequence</text>
  <line x1="220" y1="110" x2="1140" y2="110"     stroke="#30363d" stroke-width="1"/>
  <line x1="220.0" y1="106" x2="220.0" y2="114"     stroke="#6e7681" stroke-width="1"/>
  <text x="220.0" y="100" fill="#6e7681" font-size="9"     text-anchor="middle">0</text>
  <line x1="306.25" y1="106" x2="306.25" y2="114"     stroke="#6e7681" stroke-width="1"/>
  <text x="306.25" y="100" fill="#6e7681" font-size="9"     text-anchor="middle">3</text>
  <line x1="392.5" y1="106" x2="392.5" y2="114"     stroke="#6e7681" stroke-width="1"/>
  <text x="392.5" y="100" fill="#6e7681" font-size="9"     text-anchor="middle">6</text>
  <line x1="478.75" y1="106" x2="478.75" y2="114"     stroke="#6e7681" stroke-width="1"/>
  <text x="478.75" y="100" fill="#6e7681" font-size="9"     text-anchor="middle">9</text>
  <line x1="565.0" y1="106" x2="565.0" y2="114"     stroke="#6e7681" stroke-width="1"/>
  <text x="565.0" y="100" fill="#6e7681" font-size="9"     text-anchor="middle">12</text>
  <line x1="651.25" y1="106" x2="651.25" y2="114"     stroke="#6e7681" stroke-width="1"/>
  <text x="651.25" y="100" fill="#6e7681" font-size="9"     text-anchor="middle">15</text>
  <line x1="737.5" y1="106" x2="737.5" y2="114"     stroke="#6e7681" stroke-width="1"/>
  <text x="737.5" y="100" fill="#6e7681" font-size="9"     text-anchor="middle">18</text>
  <line x1="823.75" y1="106" x2="823.75" y2="114"     stroke="#6e7681" stroke-width="1"/>
  <text x="823.75" y="100" fill="#6e7681" font-size="9"     text-anchor="middle">21</text>
  <line x1="910.0" y1="106" x2="910.0" y2="114"     stroke="#6e7681" stroke-width="1"/>
  <text x="910.0" y="100" fill="#6e7681" font-size="9"     text-anchor="middle">24</text>
  <line x1="996.25" y1="106" x2="996.25" y2="114"     stroke="#6e7681" stroke-width="1"/>
  <text x="996.25" y="100" fill="#6e7681" font-size="9"     text-anchor="middle">27</text>
  <line x1="1082.5" y1="106" x2="1082.5" y2="114"     stroke="#6e7681" stroke-width="1"/>
  <text x="1082.5" y="100" fill="#6e7681" font-size="9"     text-anchor="middle">30</text>
  <text x="1140" y="88" fill="#6e7681" font-size="10"     text-anchor="end">event sequence →</text>
  <rect x="32" y="150" width="170" height="120"     rx="8" fill="#161b22" stroke="#30363d"/>
  <text x="40" y="172" fill="#58a6ff" font-size="13"     font-weight="700">Final Review</text>
  <text x="40" y="190" fill="#6e7681" font-size="10">cap=reviewing · thr=2</text>
  <text x="40" y="208" fill="#e6edf3" font-size="10">members: editor, reviewer</text>
  <text x="40" y="226" fill="#3fb950"     font-size="10" font-weight="700">state: ACTIVE</text>
  <line x1="220" y1="190" x2="1140" y2="190"     stroke="#30363d" stroke-width="1" stroke-dasharray="3 4"/>
  <rect x="910.0" y="176"     width="86.25" height="28"     rx="4" fill="#d29922" fill-opacity="0.18"     stroke="#d29922" stroke-opacity="0.55"/>
  <rect x="996.25" y="172"     width="143.75" height="36"     rx="4" fill="#3fb950" fill-opacity="0.22"     stroke="#3fb950" stroke-opacity="0.7"/>
  <line x1="910.0" y1="168" x2="910.0" y2="212"     stroke="#58a6ff" stroke-width="1.6"/>
  <circle cx="910.0" cy="168" r="4" fill="#58a6ff"/>
  <line x1="910.0" y1="212" x2="910.0" y2="217"     stroke="#58a6ff" stroke-width="0.8" stroke-opacity="0.5"     stroke-dasharray="2 2"/>
  <text x="916.0" y="226" fill="#58a6ff"     font-size="10" font-weight="500">created</text>
  <line x1="938.75" y1="168" x2="938.75" y2="212"     stroke="#3fb950" stroke-width="1.6"/>
  <circle cx="938.75" cy="168" r="4" fill="#3fb950"/>
  <line x1="938.75" y1="212" x2="938.75" y2="231"     stroke="#3fb950" stroke-width="0.8" stroke-opacity="0.5"     stroke-dasharray="2 2"/>
  <text x="944.75" y="240" fill="#3fb950"     font-size="10" font-weight="500">+ editor</text>
  <line x1="967.5" y1="168" x2="967.5" y2="212"     stroke="#3fb950" stroke-width="1.6"/>
  <circle cx="967.5" cy="168" r="4" fill="#3fb950"/>
  <line x1="967.5" y1="212" x2="967.5" y2="245"     stroke="#3fb950" stroke-width="0.8" stroke-opacity="0.5"     stroke-dasharray="2 2"/>
  <text x="973.5" y="254" fill="#3fb950"     font-size="10" font-weight="500">+ reviewer</text>
  <line x1="996.25" y1="168" x2="996.25" y2="212"     stroke="#3fb950" stroke-width="1.6"/>
  <circle cx="996.25" cy="168" r="4" fill="#3fb950"/>
  <line x1="996.25" y1="212" x2="996.25" y2="217"     stroke="#3fb950" stroke-width="0.8" stroke-opacity="0.5"     stroke-dasharray="2 2"/>
  <text x="1002.25" y="226" fill="#3fb950"     font-size="10" font-weight="700">ACTIVATED</text>
  <circle cx="40" cy="330" r="4" fill="#58a6ff"/>
  <text x="50" y="334" fill="#6e7681"     font-size="11">created</text>
  <circle cx="120" cy="330" r="4" fill="#3fb950"/>
  <text x="130" y="334" fill="#6e7681"     font-size="11">joined</text>
  <circle cx="192" cy="330" r="4" fill="#3fb950"/>
  <text x="202" y="334" fill="#6e7681"     font-size="11">ACTIVATED</text>
  <circle cx="288" cy="330" r="4" fill="#d29922"/>
  <text x="298" y="334" fill="#6e7681"     font-size="11">deactivated</text>
  <circle cx="400" cy="330" r="4" fill="#f85149"/>
  <text x="410" y="334" fill="#6e7681"     font-size="11">dissolved</text>
</svg>
