<svg xmlns="http://www.w3.org/2000/svg" viewBox="0 0 100 100" fill="none" stroke="#141414">
  <!-- Registration target — crop-mark crosshair for corners / anchors -->
  <circle cx="50" cy="50" r="38" stroke-width="1.5"/>
  <circle cx="50" cy="50" r="17" stroke-width="1"/>
  <line x1="50" y1="2" x2="50" y2="26" stroke-width="1.5"/>
  <line x1="50" y1="74" x2="50" y2="98" stroke-width="1.5"/>
  <line x1="2" y1="50" x2="26" y2="50" stroke-width="1.5"/>
  <line x1="74" y1="50" x2="98" y2="50" stroke-width="1.5"/>
  <line x1="50" y1="41" x2="50" y2="59" stroke-width="1"/>
  <line x1="41" y1="50" x2="59" y2="50" stroke-width="1"/>
  <g stroke-width="1">
    <line x1="50" y1="12" x2="50" y2="17" transform="rotate(30 50 50)"/>
    <line x1="50" y1="12" x2="50" y2="17" transform="rotate(60 50 50)"/>
    <line x1="50" y1="12" x2="50" y2="17" transform="rotate(120 50 50)"/>
    <line x1="50" y1="12" x2="50" y2="17" transform="rotate(150 50 50)"/>
    <line x1="50" y1="12" x2="50" y2="17" transform="rotate(210 50 50)"/>
    <line x1="50" y1="12" x2="50" y2="17" transform="rotate(240 50 50)"/>
    <line x1="50" y1="12" x2="50" y2="17" transform="rotate(300 50 50)"/>
    <line x1="50" y1="12" x2="50" y2="17" transform="rotate(330 50 50)"/>
  </g>
</svg>
