<svg xmlns="http://www.w3.org/2000/svg" viewBox="0 0 120 120" fill="#141414">
  <!-- Turbine rosette — 24 stencil blades, ref: American Turbines mark -->
  <g>
    <rect x="57.2" y="14" width="5.6" height="24"/>
    <rect x="57.2" y="14" width="5.6" height="24" transform="rotate(15 60 60)"/>
    <rect x="57.2" y="14" width="5.6" height="24" transform="rotate(30 60 60)"/>
    <rect x="57.2" y="14" width="5.6" height="24" transform="rotate(45 60 60)"/>
    <rect x="57.2" y="14" width="5.6" height="24" transform="rotate(60 60 60)"/>
    <rect x="57.2" y="14" width="5.6" height="24" transform="rotate(75 60 60)"/>
    <rect x="57.2" y="14" width="5.6" height="24" transform="rotate(90 60 60)"/>
    <rect x="57.2" y="14" width="5.6" height="24" transform="rotate(105 60 60)"/>
    <rect x="57.2" y="14" width="5.6" height="24" transform="rotate(120 60 60)"/>
    <rect x="57.2" y="14" width="5.6" height="24" transform="rotate(135 60 60)"/>
    <rect x="57.2" y="14" width="5.6" height="24" transform="rotate(150 60 60)"/>
    <rect x="57.2" y="14" width="5.6" height="24" transform="rotate(165 60 60)"/>
    <rect x="57.2" y="14" width="5.6" height="24" transform="rotate(180 60 60)"/>
    <rect x="57.2" y="14" width="5.6" height="24" transform="rotate(195 60 60)"/>
    <rect x="57.2" y="14" width="5.6" height="24" transform="rotate(210 60 60)"/>
    <rect x="57.2" y="14" width="5.6" height="24" transform="rotate(225 60 60)"/>
    <rect x="57.2" y="14" width="5.6" height="24" transform="rotate(240 60 60)"/>
    <rect x="57.2" y="14" width="5.6" height="24" transform="rotate(255 60 60)"/>
    <rect x="57.2" y="14" width="5.6" height="24" transform="rotate(270 60 60)"/>
    <rect x="57.2" y="14" width="5.6" height="24" transform="rotate(285 60 60)"/>
    <rect x="57.2" y="14" width="5.6" height="24" transform="rotate(300 60 60)"/>
    <rect x="57.2" y="14" width="5.6" height="24" transform="rotate(315 60 60)"/>
    <rect x="57.2" y="14" width="5.6" height="24" transform="rotate(330 60 60)"/>
    <rect x="57.2" y="14" width="5.6" height="24" transform="rotate(345 60 60)"/>
  </g>
</svg>
